<?xml version="1.0" encoding="UTF-8" standalone="no"?>
<!-- Created with Inkscape (http://www.inkscape.org/) -->

<svg
   width="1920"
   height="1080"
   viewBox="0 0 1920 1080"
   version="1.1"
   id="svg1"
   inkscape:version="1.4.4 (dcaf3e7, 2026-05-05)"
   sodipodi:docname="background site.svg"
   xmlns:inkscape="http://www.inkscape.org/namespaces/inkscape"
   xmlns:sodipodi="http://sodipodi.sourceforge.net/DTD/sodipodi-0.dtd"
   xmlns="http://www.w3.org/2000/svg"
   xmlns:svg="http://www.w3.org/2000/svg">
  <sodipodi:namedview
     id="namedview1"
     pagecolor="#505050"
     bordercolor="#ffffff"
     borderopacity="1"
     inkscape:showpageshadow="0"
     inkscape:pageopacity="0"
     inkscape:pagecheckerboard="1"
     inkscape:deskcolor="#505050"
     inkscape:document-units="px"
     inkscape:zoom="0.37868616"
     inkscape:cx="1320.3546"
     inkscape:cy="307.64261"
     inkscape:window-width="1920"
     inkscape:window-height="991"
     inkscape:window-x="1911"
     inkscape:window-y="-9"
     inkscape:window-maximized="1"
     inkscape:current-layer="svg1" />
  <defs
     id="defs1">
    <inkscape:path-effect
       effect="mirror_symmetry"
       start_point="1732.4364,473.57187"
       end_point="1732.4364,994.64932"
       center_point="1732.4364,734.11059"
       id="path-effect34"
       is_visible="true"
       lpeversion="1.2"
       lpesatellites=""
       mode="free"
       discard_orig_path="true"
       fuse_paths="false"
       oposite_fuse="false"
       split_items="false"
       split_open="false"
       link_styles="false" />
    <inkscape:perspective
       sodipodi:type="inkscape:persp3d"
       inkscape:vp_x="11633.051 : -14601.638 : 1"
       inkscape:vp_y="0 : 1000 : 0"
       inkscape:vp_z="12507.383 : -15227.172 : 1"
       inkscape:persp3d-origin="11637.012 : -15268.994 : 1"
       id="perspective3" />
    <inkscape:path-effect
       effect="perspective-envelope"
       up_left_point="-13.927088,2.6001706"
       up_right_point="184.00609,2.6001706"
       down_left_point="-158.30351,157.15936"
       down_right_point="328.38251,157.15936"
       id="path-effect422"
       is_visible="true"
       lpeversion="1"
       deform_type="perspective"
       horizontal_mirror="false"
       vertical_mirror="true"
       overflow_perspective="false" />
  </defs>
  <g
     inkscape:label="Layer 1"
     inkscape:groupmode="layer"
     id="layer1">
    <path
       id="rect1"
       style="fill:#004aad"
       d="M -21.500696,-6.9857838 H 1941.5007 V 1086.9858 H -21.500696 Z" />
  </g>
  <g
     inkscape:label="GridCartesian:X9:Y9"
     transform="matrix(6.2236246,0,0,6.2236246,430.74844,202.00324)"
     id="g415"
     inkscape:path-effect="#path-effect422">
    <g
       inkscape:label="MajorXGridlines"
       id="g370">
      <path
         style="fill:none;stroke:#5170ff;stroke-width:1.60678;stroke-dasharray:none;stroke-opacity:1"
         d="M 8.0654087,2.6001706 -104.22748,157.15936"
         inkscape:label="MajorXDiv1"
         id="path363"
         inkscape:original-d="M 18.8976,0 V 170.079" />
      <path
         style="fill:none;stroke:#5170ff;stroke-width:1.60678;stroke-dasharray:none;stroke-opacity:1"
         d="M 30.058023,2.6001706 -50.151156,157.15936"
         inkscape:label="MajorXDiv2"
         id="path364"
         inkscape:original-d="M 37.7953,0 V 170.079" />
      <path
         style="fill:none;stroke:#5170ff;stroke-width:1.60678;stroke-dasharray:none;stroke-opacity:1"
         d="M 52.050521,2.6001706 3.9248772,157.15936"
         inkscape:label="MajorXDiv3"
         id="path365"
         inkscape:original-d="M 56.6929,0 V 170.079" />
      <path
         style="fill:none;stroke:#5170ff;stroke-width:1.60678;stroke-dasharray:none;stroke-opacity:1"
         d="M 74.043135,2.6001706 58.001197,157.15936"
         inkscape:label="MajorXDiv4"
         id="path366"
         inkscape:original-d="M 75.5906,0 V 170.079" />
      <path
         style="fill:none;stroke:#5170ff;stroke-width:1.60678;stroke-dasharray:none;stroke-opacity:1"
         d="M 96.035632,2.6001706 112.07723,157.15936"
         inkscape:label="MajorXDiv5"
         id="path367"
         inkscape:original-d="M 94.4882,0 V 170.079" />
      <path
         style="fill:none;stroke:#5170ff;stroke-width:1.60678;stroke-dasharray:none;stroke-opacity:1"
         d="M 118.02836,2.6001706 166.15384,157.15936"
         inkscape:label="MajorXDiv6"
         id="path368"
         inkscape:original-d="M 113.386,0 V 170.079" />
      <path
         style="fill:none;stroke:#5170ff;stroke-width:1.60678;stroke-dasharray:none;stroke-opacity:1"
         d="M 140.02016,2.6001706 220.22815,157.15936"
         inkscape:label="MajorXDiv7"
         id="path369"
         inkscape:original-d="M 132.283,0 V 170.079" />
      <path
         style="fill:none;stroke:#5170ff;stroke-width:1.60678;stroke-dasharray:none;stroke-opacity:1"
         d="M 162.01313,2.6001706 274.30533,157.15936"
         inkscape:label="MajorXDiv8"
         id="path370"
         inkscape:original-d="M 151.181,0 V 170.079" />
    </g>
    <g
       inkscape:label="MajorYGridlines"
       id="g378">
      <path
         style="fill:none;stroke:#5170ff;stroke-width:1.60678;stroke-dasharray:none;stroke-opacity:1"
         d="m -20.911649,10.077346 211.902299,0"
         inkscape:label="MajorYDiv1"
         id="path371"
         inkscape:original-d="M 0,18.8976 H 170.079" />
      <path
         style="fill:none;stroke:#5170ff;stroke-width:1.60678;stroke-dasharray:none;stroke-opacity:1"
         d="m -28.956984,18.690114 227.992964,0"
         inkscape:label="MajorYDiv2"
         id="path372"
         inkscape:original-d="M 0,37.7953 H 170.079" />
      <path
         style="fill:none;stroke:#5170ff;stroke-width:1.60678;stroke-dasharray:none;stroke-opacity:1"
         d="m -38.324505,28.71832 246.728015,0"
         inkscape:label="MajorYDiv3"
         id="path373"
         inkscape:original-d="M 0,56.6929 H 170.079" />
      <path
         style="fill:none;stroke:#5170ff;stroke-width:1.60678;stroke-dasharray:none;stroke-opacity:1"
         d="M -49.369454,40.542261 H 219.44845"
         inkscape:label="MajorYDiv4"
         id="path374"
         inkscape:original-d="M 0,75.5906 H 170.079" />
      <path
         style="fill:none;stroke:#5170ff;stroke-width:1.60678;stroke-dasharray:none;stroke-opacity:1"
         d="m -62.586547,54.691547 295.252097,0"
         inkscape:label="MajorYDiv5"
         id="path375"
         inkscape:original-d="M 0,94.4882 H 170.079" />
      <path
         style="fill:none;stroke:#5170ff;stroke-width:1.60678;stroke-dasharray:none;stroke-opacity:1"
         d="M -78.686722,71.927255 H 248.76572"
         inkscape:label="MajorYDiv6"
         id="path376"
         inkscape:original-d="M 0,113.386 H 170.079" />
      <path
         style="fill:none;stroke:#5170ff;stroke-width:1.60678;stroke-dasharray:none;stroke-opacity:1"
         d="m -98.727611,93.381614 367.534221,0"
         inkscape:label="MajorYDiv7"
         id="path377"
         inkscape:original-d="M 0,132.283 H 170.079" />
      <path
         style="fill:none;stroke:#5170ff;stroke-width:1.60678;stroke-dasharray:none;stroke-opacity:1"
         d="m -124.36056,120.82243 418.80012,0"
         inkscape:label="MajorYDiv8"
         id="path378"
         inkscape:original-d="M 0,151.181 H 170.079" />
    </g>
    <path
       x="0"
       y="0"
       width="170.07874"
       height="170.07874"
       style="fill:none;stroke:#5170ff;stroke-width:1.60678;stroke-dasharray:none;stroke-opacity:1"
       inkscape:label="Border"
       id="rect414"
       sodipodi:type="rect"
       d="M -13.927089,2.6001706 H 184.00578 L 328.3812,157.15877 l -486.68416,0 z" />
  </g>
  <path
     style="fill:#738cff;fill-opacity:1;stroke:#738cff;stroke-width:7.78817;stroke-opacity:1"
     d="m 564.53033,466.59587 c -8.26441,-0.78647 -19.91999,-2.7775 -33.31539,-5.69098 -13.78996,-2.9993 -27.71684,-3.54051 -59.44888,-2.31019 -41.15761,1.59577 -53.28094,-0.18542 -66.31477,-9.74313 -2.79258,-2.04779 -7.00509,-4.93968 -9.36115,-6.42644 -5.47783,-3.45671 -9.33077,-7.8643 -22.16283,-25.35335 -9.10478,-12.40909 -10.83483,-15.26383 -13.68749,-22.58567 -1.79596,-4.60965 -4.80308,-11.7476 -6.68247,-15.86212 -3.6934,-8.08585 -4.13999,-11.30363 -2.37645,-17.12268 3.59857,-11.87391 11.32574,-20.96301 24.38279,-28.6803 25.23323,-14.91394 32.82288,-22.0317 35.77354,-33.54926 1.60776,-6.27573 0.68407,-13.04546 -2.77876,-20.36523 -3.38678,-7.15905 -3.21372,-10.86913 0.78643,-16.85939 7.15373,-10.71278 26.00379,-25.7427 35.82923,-28.56809 7.44294,-2.1403 18.93092,-1.78151 36.58596,1.14266 17.73817,2.9379 25.64473,4.74975 34.50848,7.90787 5.82396,2.07502 7.53014,3.11141 11.29286,6.85953 2.4378,2.42835 5.03613,5.48247 5.77412,6.78691 1.30216,2.30178 1.28467,2.48625 -0.59407,6.25633 -1.90528,3.82346 -3.51023,5.65966 -8.94587,10.23512 -3.51627,2.9598 -5.65424,7.29325 -8.14008,16.49878 -2.16293,8.00996 -2.6582,16.01946 -1.14086,18.44916 1.47465,2.36124 7.50422,5.66511 11.83921,6.48722 5.10069,0.96732 19.33313,0.93952 32.50909,-0.0635 8.49458,-0.64667 11.97432,-1.30004 18.11715,-3.40177 14.38866,-4.92295 21.35792,-10.24579 40.30678,-30.78436 10.27857,-11.14095 15.40288,-14.80385 24.81611,-17.73875 6.11776,-1.90741 6.97916,-1.99272 11.79059,-1.16765 12.11613,2.07769 35.12323,10.27509 38.8648,13.8475 2.48147,2.36924 2.41458,7.54121 -0.19455,15.04377 -2.49318,7.16893 -6.50768,12.50985 -12.32136,16.39207 -6.09775,4.07191 -10.63165,5.36587 -22.08054,6.30169 -5.14018,0.42015 -11.2227,1.30794 -13.51675,1.97286 -8.10125,2.34811 -15.80156,12.23775 -15.92556,20.45346 -0.0701,4.6473 1.81744,7.55442 7.10992,10.95061 3.90163,2.50369 7.45296,3.48744 22.72181,6.29425 10.75391,1.97684 13.58428,3.25785 16.90253,7.64986 3.33948,4.42015 4.41815,8.68243 3.78568,14.95945 -1.0411,10.33235 -3.84118,18.04954 -7.97209,21.9713 -4.44393,4.21885 -10.04017,5.19843 -43.21227,7.56396 -23.50411,1.67609 -25.39275,2.16618 -30.71744,7.97116 -10.23233,11.15522 -11.08224,19.86994 -2.80922,28.80582 3.7316,4.03051 4.33743,5.1305 4.65681,8.45401 0.46666,4.85667 -2.01063,9.41327 -7.10792,13.07386 -6.79118,4.87704 -11.16262,5.50287 -27.54712,3.94367 z"
     id="path27" />
  <path
     style="fill:#738cff;fill-opacity:1;stroke:#738cff;stroke-width:17.2511;stroke-opacity:1"
     d="m 2020.4827,992.96905 c 18.306,-1.74208 44.1236,-6.15228 73.795,-12.60576 30.5454,-6.64359 61.3938,-7.84238 131.6818,-5.11717 91.1657,3.53468 118.0194,-0.41071 146.8897,-21.58143 6.1859,-4.53594 15.5168,-10.9416 20.7354,-14.23485 12.1338,-7.65675 20.6681,-17.41974 49.0917,-56.15872 20.1675,-27.48665 23.9996,-33.81001 30.3184,-50.02818 3.978,-10.21058 10.639,-26.02142 14.8019,-35.13525 8.1811,-17.91051 9.1703,-25.03801 5.2638,-37.92747 -7.9708,-26.30118 -25.0867,-46.43393 -54.0089,-63.52802 -55.8926,-33.03501 -72.7038,-48.80115 -79.2397,-74.31301 -3.5613,-13.901 -1.5152,-28.89625 6.1551,-45.10983 7.5018,-15.85758 7.1185,-24.07557 -1.7419,-37.34425 -15.8459,-23.72927 -57.5996,-57.02113 -79.3633,-63.2795 -16.4866,-4.74086 -41.9328,-3.94614 -81.0394,2.53103 -39.2909,6.50758 -56.8041,10.52091 -76.4377,17.51625 -12.9003,4.59627 -16.6797,6.89192 -25.0142,15.19416 -5.3998,5.3789 -11.1552,12.1439 -12.79,15.03329 -2.8842,5.09854 -2.8456,5.50715 1.3158,13.85802 4.2204,8.46912 7.7755,12.53638 19.8155,22.67122 7.7888,6.55608 12.5245,16.15484 18.0308,36.54548 4.7909,17.7424 5.8881,35.48377 2.5269,40.86566 -3.2665,5.23024 -16.622,12.54843 -26.2244,14.36946 -11.2982,2.14266 -42.8235,2.08107 -72.0089,-0.14069 -18.8158,-1.43239 -26.5236,-2.87965 -40.1302,-7.53505 -31.8716,-10.90454 -47.3088,-22.69485 -89.2811,-68.18865 -22.7675,-24.67766 -34.1181,-32.79113 -54.9689,-39.29204 -13.551,-4.22501 -15.459,-4.41398 -26.1165,-2.5864 -26.8377,4.60216 -77.7995,22.75975 -86.0872,30.67278 -5.4965,5.24797 -5.3484,16.70409 0.4309,33.32256 5.5225,15.87948 14.4149,27.70984 27.2924,36.30914 13.5067,9.01943 23.5495,11.88561 48.9094,13.95848 11.3856,0.93066 24.8586,2.89715 29.9401,4.36997 17.9446,5.20118 35.001,27.10712 35.2757,45.30528 0.1556,10.29396 -4.0258,16.73336 -15.7487,24.25604 -8.6424,5.54577 -16.5087,7.72482 -50.3297,13.94202 -23.8204,4.37878 -30.0899,7.21628 -37.44,16.94476 -7.3969,9.79082 -9.7863,19.23193 -8.3852,33.13582 2.3059,22.88658 8.5083,39.98048 17.6584,48.66733 9.8434,9.34494 22.2394,11.51473 95.717,16.75448 52.0626,3.71261 56.246,4.79818 68.0403,17.65644 22.6652,24.70929 24.5476,44.01275 6.2226,63.80608 -8.2656,8.92777 -9.6075,11.36429 -10.3151,18.72599 -1.0335,10.75774 4.4536,20.8508 15.7444,28.95915 15.0427,10.80285 24.7258,12.18908 61.018,8.7354 z"
     id="path27-8"
     inkscape:path-effect="#path-effect34"
     inkscape:original-d="m 1444.3901,992.96905 c -18.306,-1.74208 -44.1236,-6.15228 -73.795,-12.60576 -30.5454,-6.64359 -61.3938,-7.84238 -131.6818,-5.11717 -91.1657,3.53468 -118.0194,-0.41071 -146.8897,-21.58143 -6.1859,-4.53594 -15.5168,-10.9416 -20.7354,-14.23485 -12.1338,-7.65675 -20.6681,-17.41974 -49.0917,-56.15872 -20.1675,-27.48665 -23.9996,-33.81001 -30.31841,-50.02818 -3.97799,-10.21058 -10.63901,-26.02142 -14.80186,-35.13525 -8.18112,-17.91051 -9.17028,-25.03801 -5.26385,-37.92747 7.97083,-26.30118 25.08674,-46.43393 54.00892,-63.52802 55.8926,-33.03501 72.7038,-48.80115 79.2397,-74.31301 3.5613,-13.901 1.5152,-28.89625 -6.1551,-45.10983 -7.5018,-15.85758 -7.1185,-24.07557 1.7419,-37.34425 15.8459,-23.72927 57.5996,-57.02113 79.3633,-63.2795 16.4866,-4.74086 41.9328,-3.94614 81.0394,2.53103 39.2909,6.50758 56.8041,10.52091 76.4377,17.51625 12.9003,4.59627 16.6797,6.89192 25.0142,15.19416 5.3998,5.3789 11.1552,12.1439 12.79,15.03329 2.8842,5.09854 2.8456,5.50715 -1.3158,13.85802 -4.2204,8.46912 -7.7755,12.53638 -19.8155,22.67122 -7.7888,6.55608 -12.5245,16.15484 -18.0308,36.54548 -4.7909,17.7424 -5.8881,35.48377 -2.5269,40.86566 3.2665,5.23024 16.622,12.54843 26.2244,14.36946 11.2982,2.14266 42.8235,2.08107 72.0089,-0.14069 18.8158,-1.43239 26.5236,-2.87965 40.1302,-7.53505 31.8716,-10.90454 47.3088,-22.69485 89.2811,-68.18865 22.7675,-24.67766 34.1181,-32.79113 54.9689,-39.29204 13.551,-4.22501 15.459,-4.41398 26.1165,-2.5864 26.8377,4.60216 77.7995,22.75975 86.0872,30.67278 5.4965,5.24797 5.3484,16.70409 -0.4309,33.32256 -5.5225,15.87948 -14.4149,27.70984 -27.2924,36.30914 -13.5067,9.01943 -23.5495,11.88561 -48.9094,13.95848 -11.3856,0.93066 -24.8586,2.89715 -29.9401,4.36997 -17.9446,5.20118 -35.001,27.10712 -35.2757,45.30528 -0.1556,10.29396 4.0258,16.73336 15.7487,24.25604 8.6424,5.54577 16.5087,7.72482 50.3297,13.94202 23.8204,4.37878 30.0899,7.21628 37.44,16.94476 7.3969,9.79082 9.7863,19.23193 8.3852,33.13582 -2.3059,22.88658 -8.5083,39.98048 -17.6584,48.66733 -9.8434,9.34494 -22.2394,11.51473 -95.717,16.75448 -52.0626,3.71261 -56.246,4.79818 -68.0403,17.65644 -22.6652,24.70929 -24.5476,44.01275 -6.2226,63.80608 8.2656,8.92777 9.6075,11.36429 10.3151,18.72599 1.0335,10.75774 -4.4536,20.8508 -15.7444,28.95915 -15.0427,10.80285 -24.7258,12.18908 -61.018,8.7354 z"
     transform="matrix(0.85781993,0,0,0.85781993,-386.03791,87.193473)" />
  <rect
     style="fill:none;stroke:#738cff;stroke-width:9.97624;stroke-linecap:round;stroke-linejoin:bevel;stroke-dasharray:39.9048, 19.9524"
     id="rect2"
     width="1749.9958"
     height="980.02374"
     x="85.016022"
     y="49.988129"
     ry="217.78305" />
</svg>
